<?xml version="1.0" encoding="iso-8859-1"?>
<!-- Generator: Adobe Illustrator 19.0.0, SVG Export Plug-In . SVG Version: 6.00 Build 0)  -->
<svg  version="1.1" id="Capa_1" xmlns="http://www.w3.org/2000/svg" xmlns:xlink="http://www.w3.org/1999/xlink" x="0px" y="0px"
	 viewBox="0 0 512 512" style="enable-background:new 0 0 512 512;" xml:space="preserve">
<g>
	<g>
		<path style="fill:#FFFFFF;" d="M83.749,171.775l-1.042-7.027c-0.607-4.097-4.422-6.928-8.519-6.319c-4.097,0.607-6.927,4.421-6.319,8.519l1.042,7.027
			c0.552,3.725,3.754,6.401,7.41,6.401c0.366,0,0.736-0.027,1.109-0.082C81.527,179.687,84.357,175.873,83.749,171.775z"/>
	</g>
</g>
<g>
	<g>
		<path style="fill:#FFFFFF;" d="M161.4,160.264l-1.042-7.027c-0.607-4.097-4.422-6.928-8.519-6.319c-4.097,0.607-6.927,4.421-6.319,8.519l1.042,7.027
			c0.552,3.725,3.754,6.401,7.41,6.401c0.366,0,0.736-0.027,1.109-0.082C159.178,168.176,162.008,164.362,161.4,160.264z"/>
	</g>
</g>
<g>
	<g>
		<path style="fill:#FFFFFF;" d="M130.981,159.048c-3.484-2.239-8.125-1.23-10.364,2.255c-1.233,1.918-3.344,3.227-5.792,3.589
			c-2.452,0.365-4.848-0.277-6.584-1.755c-3.154-2.685-7.888-2.305-10.572,0.849c-2.686,3.154-2.305,7.887,0.849,10.572
			c4.148,3.532,9.461,5.434,14.969,5.434c1.174,0,2.356-0.086,3.539-0.262c6.73-0.998,12.639-4.759,16.211-10.319
			C135.475,165.927,134.466,161.287,130.981,159.048z"/>
	</g>
</g>
<g>
	<g>
		<path style="fill:#FFFFFF;" d="M311.999,144.85c-4.103-0.609-7.911,2.222-8.519,6.319l-1.042,7.027c-0.607,4.098,2.223,7.912,6.32,8.519
			c4.339,0.642,7.527-2.355,8.518-6.319l1.042-7.027C318.925,149.272,316.096,145.458,311.999,144.85z"/>
	</g>
</g>
<g>
	<g>
		<path style="fill:#FFFFFF;" d="M234.347,133.339c-4.103-0.61-7.911,2.222-8.519,6.319l-1.042,7.027c-0.606,4.098,2.223,7.912,6.32,8.519
			c4.043,0.598,7.919-2.276,8.518-6.319l1.042-7.027C241.273,137.761,238.444,133.947,234.347,133.339z"/>
	</g>
</g>
<g>
	<g>
		<path style="fill:#FFFFFF;" d="M288.519,150.409c-2.685-3.155-7.419-3.533-10.572-0.849c-1.737,1.479-4.135,2.119-6.585,1.756
			c-2.448-0.363-4.559-1.671-5.792-3.59c-2.24-3.486-6.88-4.495-10.364-2.255c-3.485,2.239-4.495,6.879-2.255,10.364
			c3.572,5.559,9.481,9.32,16.211,10.318c6.568,0.974,13.433-0.851,18.508-5.172C290.824,158.296,291.204,153.563,288.519,150.409z"
			/>
	</g>
</g>
<g>
	<g>
		<path style="fill:#FFFFFF;" d="M229.685,73.981c-0.068-4.142-3.486-7.424-7.622-7.376c-4.142,0.068-7.444,3.48-7.376,7.622l0.117,7.103
			c0.068,4.1,3.412,7.377,7.497,7.377c0.042,0,0.083,0,0.125-0.001c4.142-0.068,7.444-3.48,7.376-7.622L229.685,73.981z"/>
	</g>
</g>
<g>
	<g>
		<path style="fill:#FFFFFF;" d="M151.196,75.273c-0.068-4.142-3.504-7.421-7.622-7.376c-4.142,0.068-7.444,3.48-7.376,7.622l0.117,7.103
			c0.067,4.1,3.412,7.377,7.497,7.377c0.042,0,0.083,0,0.125-0.001c4.142-0.068,7.444-3.48,7.376-7.622L151.196,75.273z"/>
	</g>
</g>
<g>
	<g>
		<path style="fill:#FFFFFF;" d="M199.801,75.913c-3.164-2.676-7.896-2.277-10.569,0.886c-1.472,1.741-3.736,2.764-6.21,2.804
			c-2.472,0.048-4.77-0.906-6.299-2.599c-2.778-3.073-7.52-3.313-10.593-0.537c-3.073,2.777-3.313,7.52-0.537,10.593
			c4.344,4.809,10.621,7.544,17.276,7.544c0.133,0,0.267-0.001,0.4-0.003c6.803-0.112,13.151-3.071,17.418-8.119
			C203.361,83.319,202.965,78.586,199.801,75.913z"/>
	</g>
</g>
<g>
	<g>
		<path style="fill:#FFFFFF;" d="M510.914,266.506c-4.826-19.242-24.407-30.973-43.652-26.145c-2.14,0.537-4.224,1.271-6.222,2.187
			c-5.825-17.644-13.917-39.851-23.706-60.773c-1.755-3.751-6.218-5.37-9.972-3.615c-3.752,1.755-5.37,6.22-3.615,9.972
			c19.364,41.391,32.343,89.614,32.971,91.97c0.512,2.173,10.044,43.093,13.536,84.991c3.724,44.689-0.636,73.968-12.309,84.292
			l-80.038-319.087c12.295,2.973,24.286,18.854,32.794,33.019c2.133,3.551,6.74,4.701,10.291,2.568s4.701-6.74,2.568-10.291
			c-18.767-31.248-37.958-44.666-57.053-39.876l-23.406,5.871c-3.781-2.542-8.081-4.222-12.642-4.898l-62.783-9.307
			c0,0-0.678-41.247-0.679-41.275c-0.276-16.809-14.53-30.547-31.307-30.294c0,0-106.664,1.755-106.75,1.756
			c-16.726,0.275-30.569,14.625-30.294,31.308l0.903,54.895l-43.823,6.497c-8.139,1.207-15.321,5.51-20.224,12.119
			c-4.902,6.608-6.938,14.73-5.731,22.869l4.672,31.521h-3.074c-8.534,0-16.514,3.367-22.469,9.48
			c-5.955,6.113-9.112,14.177-8.889,22.707C2.94,340.58,25.088,390.801,42.886,431.158c0.21,0.475,0.756,1.623,0.764,1.638
			c12.382,26.366,39.265,43.393,68.556,43.393h152.496c29.289,0,56.171-17.024,68.56-43.399c0.256-0.545,0.519-1.086,0.762-1.637
			c12.922-29.301,28.448-64.515,36.924-125.616c0,0,41.366,164.913,41.382,164.977c0.99,3.947,5.149,6.444,9.1,5.45l33.353-8.366
			c25.392-6.369,35.626-41.276,30.42-103.75c-1.584-19.014-4.323-37.583-6.954-52.68c2.195-0.136,4.381-0.472,6.522-1.009
			C504.013,305.332,515.742,285.749,510.914,266.506z M327.487,131.413c0,0.039,0.007,0.079,0.008,0.118
			c0.01,0.554,0.084,1.113,0.219,1.65l10.232,40.792l-3.381,22.805H204.66l-4.991-33.665c0,0,5.025-33.897,5.029-33.925
			c1.264-8.526,9.421-14.581,17.952-13.316L327.487,131.413z M129.187,52.569c0,0,106.568-1.753,106.75-1.756
			c8.625-0.142,15.921,6.932,16.063,15.543l0.638,38.799c0,0-27.773-4.117-27.789-4.119c-13.659-2.025-27.417,5.63-32.839,18.336
			c-0.87,2.038-1.517,4.172-1.931,6.348c-0.016,0.084-0.036,0.166-0.052,0.25c-0.044-0.055-0.093-0.106-0.137-0.161
			c-3.768-4.684-8.885-8.212-14.609-10.058c-4.431-1.429-9.29-1.828-13.945-1.137l-46.821,6.94c0,0-0.869-52.842-0.871-52.922
			C113.503,60.049,120.639,52.709,129.187,52.569z M47.55,151.325c2.515-3.39,6.2-5.599,10.375-6.218
			c0,0,105.45-15.632,105.612-15.656c6.148-0.911,12.687,2.174,15.882,7.505c1.053,1.758,1.76,3.723,2.07,5.811l8.007,54.011H49.608
			l-4.998-33.72C43.991,158.882,45.035,154.715,47.55,151.325z M321.693,421.939H142.438c-4.142,0-7.5,3.358-7.5,7.5
			c0,4.142,3.358,7.5,7.5,7.5h170.91c-11.308,15.026-29.322,24.25-48.646,24.25H112.205c-19.324,0-37.338-9.224-48.646-24.25h48.919
			c4.142,0,7.5-3.358,7.5-7.5c0-4.142-3.358-7.5-7.5-7.5H55.215c-17.007-38.634-37.434-87.612-40.207-193.367
			c-0.238-9.079,7.305-16.794,16.362-16.794h314.166c0.645,0,1.286,0.038,1.921,0.112l12.806,51.054
			C354.43,345.537,336.566,388.15,321.693,421.939z M425.054,459.59l-80.966-322.784l18.803-4.716l80.966,322.784L425.054,459.59z
			 M475.484,296.242c-2.266-11.552-4.023-18.987-4.194-19.705c-0.014-0.058-0.028-0.115-0.043-0.173
			c-0.204-0.774-2.161-8.147-5.6-19.353c1.634-0.928,3.393-1.632,5.265-2.101c11.221-2.817,22.639,4.025,25.454,15.245
			c2.814,11.221-4.025,22.64-15.246,25.454C479.247,296.079,477.36,296.287,475.484,296.242z"/>
	</g>
</g>
<g>
</g>
<g>
</g>
<g>
</g>
<g>
</g>
<g>
</g>
<g>
</g>
<g>
</g>
<g>
</g>
<g>
</g>
<g>
</g>
<g>
</g>
<g>
</g>
<g>
</g>
<g>
</g>
<g>
</g>
</svg>
